<?xml version="1.0" encoding="UTF-8" standalone="no"?>
<svg
   xmlns:dc="http://purl.org/dc/elements/1.1/"
   xmlns:cc="http://creativecommons.org/ns#"
   xmlns:rdf="http://www.w3.org/1999/02/22-rdf-syntax-ns#"
   xmlns:svg="http://www.w3.org/2000/svg"
   xmlns="http://www.w3.org/2000/svg"
   xmlns:sodipodi="http://sodipodi.sourceforge.net/DTD/sodipodi-0.dtd"
   xmlns:inkscape="http://www.inkscape.org/namespaces/inkscape"
   width="210mm"
   height="297mm"
   viewBox="0 0 210 297"
   version="1.1"
   id="svg8"
   sodipodi:docname="SimonSays.svg"
   inkscape:version="1.0.2 (e86c870879, 2021-01-15, custom)">
  <defs
     id="defs2" />
  <sodipodi:namedview
     id="base"
     pagecolor="#ffffff"
     bordercolor="#666666"
     borderopacity="1.0"
     inkscape:pageopacity="0.0"
     inkscape:pageshadow="2"
     inkscape:zoom="0.70710678"
     inkscape:cx="720.58354"
     inkscape:cy="290.60831"
     inkscape:document-units="mm"
     inkscape:current-layer="layer1"
     inkscape:document-rotation="0"
     showgrid="false"
     inkscape:window-width="1366"
     inkscape:window-height="705"
     inkscape:window-x="-8"
     inkscape:window-y="-8"
     inkscape:window-maximized="1" />
  <metadata
     id="metadata5">
    <rdf:RDF>
      <cc:Work
         rdf:about="">
        <dc:format>image/svg+xml</dc:format>
        <dc:type
           rdf:resource="http://purl.org/dc/dcmitype/StillImage" />
        <dc:title></dc:title>
      </cc:Work>
    </rdf:RDF>
  </metadata>
  <g
     inkscape:label="Layer 1"
     inkscape:groupmode="layer"
     id="layer1">
    <g
       id="g1852"
       style="stroke-width:0.2;stroke-miterlimit:4;stroke-dasharray:none">
      <circle
         style="fill:none;stroke:#000000;stroke-width:0.2;stroke-miterlimit:4;stroke-dasharray:none;stroke-opacity:1"
         id="path1715"
         cx="213.84235"
         cy="65.668121"
         r="6.7600002" />
      <circle
         style="fill:none;stroke:#000000;stroke-width:0.2;stroke-miterlimit:4;stroke-dasharray:none;stroke-opacity:1"
         id="path1717"
         cx="214.21652"
         cy="84.376999"
         r="5.3299999" />
    </g>
    <g
       id="panel9402"
       style="stroke-width:0.2;stroke-miterlimit:4;stroke-dasharray:none">
      <path
         style="fill:none;stroke:#000000;stroke-width:0.2;stroke-miterlimit:4;stroke-dasharray:none"
         d="M 38.4 114 L 49.3717 114 L 49.3717 110.8 L 59.5617 110.8 L 59.5617 114 L 70.4383 114 L 70.4383 110.8 L 80.6283 110.8 L 80.6283 114 L 91.505 114 L 91.505 110.8 L 101.695 110.8 L 101.695 114 L 112.572 114 L 112.572 110.8 L 122.762 110.8 L 122.762 114 L 133.638 114 L 133.638 110.8 L 143.828 110.8 L 143.828 114 L 154.8 114"
         id="path1724" />
      <path
         style="fill:none;stroke:#000000;stroke-width:0.2;stroke-miterlimit:4;stroke-dasharray:none"
         d="M 154.8 114 L 154.8 124.095 L 151.6 124.095 L 151.6 133.905 L 154.8 133.905 L 154.8 144"
         id="path1726" />
      <path
         style="fill:none;stroke:#000000;stroke-width:0.2;stroke-miterlimit:4;stroke-dasharray:none"
         d="M 154.8 144 L 143.828 144 L 143.828 147.2 L 133.638 147.2 L 133.638 144 L 122.762 144 L 122.762 147.2 L 112.572 147.2 L 112.572 144 L 101.695 144 L 101.695 147.2 L 91.505 147.2 L 91.505 144 L 80.6283 144 L 80.6283 147.2 L 70.4383 147.2 L 70.4383 144 L 59.5617 144 L 59.5617 147.2 L 49.3717 147.2 L 49.3717 144 L 38.4 144"
         id="path1728" />
      <path
         style="fill:none;stroke:#000000;stroke-width:0.2;stroke-miterlimit:4;stroke-dasharray:none"
         d="M 38.4 144 L 38.4 133.905 L 41.6 133.905 L 41.6 124.095 L 38.4 124.095 L 38.4 114"
         id="path1730" />
    </g>
    <g
       id="panel3715"
       style="stroke-width:0.2;stroke-miterlimit:4;stroke-dasharray:none">
      <path
         style="fill:none;stroke:#000000;stroke-width:0.2;stroke-miterlimit:4;stroke-dasharray:none"
         d="M 4.2 41.6 L 14.105 41.6 L 14.105 38.4 L 24.295 38.4 L 24.295 41.6 L 34.2 41.6"
         id="path1733" />
      <path
         style="fill:none;stroke:#000000;stroke-width:0.2;stroke-miterlimit:4;stroke-dasharray:none"
         d="M 34.2 41.6 L 34.2 48.655 L 37.4 48.655 L 37.4 58.845 L 34.2 58.845 L 34.2 69.005 L 37.4 69.005 L 37.4 79.195 L 34.2 79.195 L 34.2 89.355 L 37.4 89.355 L 37.4 99.545 L 34.2 99.545 L 34.2 106.6"
         id="path1735" />
      <path
         style="fill:none;stroke:#000000;stroke-width:0.2;stroke-miterlimit:4;stroke-dasharray:none"
         d="M 34.2 106.6 L 24.295 106.6 L 24.295 109.8 L 14.105 109.8 L 14.105 106.6 L 4.2 106.6"
         id="path1737" />
      <path
         style="fill:none;stroke:#000000;stroke-width:0.2;stroke-miterlimit:4;stroke-dasharray:none"
         d="M 4.2 106.6 L 4.2 99.545 L 1 99.545 L 1 89.355 L 4.2 89.355 L 4.2 79.195 L 1 79.195 L 1 69.005 L 4.2 69.005 L 4.2 58.845 L 1 58.845 L 1 48.655 L 4.2 48.655 L 4.2 41.6"
         id="path1739" />
    </g>
    <g
       id="panel1825"
       style="stroke-width:0.2;stroke-miterlimit:4;stroke-dasharray:none">
      <path
         style="fill:none;stroke:#000000;stroke-width:0.2;stroke-miterlimit:4;stroke-dasharray:none"
         d="M 38.4 38.4 L 49.5617 38.4 L 49.5617 41.6 L 59.3717 41.6 L 59.3717 38.4 L 70.6283 38.4 L 70.6283 41.6 L 80.4383 41.6 L 80.4383 38.4 L 91.695 38.4 L 91.695 41.6 L 101.505 41.6 L 101.505 38.4 L 112.762 38.4 L 112.762 41.6 L 122.572 41.6 L 122.572 38.4 L 133.828 38.4 L 133.828 41.6 L 143.638 41.6 L 143.638 38.4 L 154.8 38.4"
         id="path1742" />
      <path
         style="fill:none;stroke:#000000;stroke-width:0.2;stroke-miterlimit:4;stroke-dasharray:none"
         d="M 154.8 38.4 L 154.8 48.845 L 151.6 48.845 L 151.6 58.655 L 154.8 58.655 L 154.8 69.195 L 151.6 69.195 L 151.6 79.005 L 154.8 79.005 L 154.8 89.545 L 151.6 89.545 L 151.6 99.355 L 154.8 99.355 L 154.8 109.8"
         id="path1744" />
      <path
         style="fill:none;stroke:#000000;stroke-width:0.2;stroke-miterlimit:4;stroke-dasharray:none"
         d="M 154.8 109.8 L 143.638 109.8 L 143.638 106.6 L 133.828 106.6 L 133.828 109.8 L 122.572 109.8 L 122.572 106.6 L 112.762 106.6 L 112.762 109.8 L 101.505 109.8 L 101.505 106.6 L 91.695 106.6 L 91.695 109.8 L 80.4383 109.8 L 80.4383 106.6 L 70.6283 106.6 L 70.6283 109.8 L 59.3717 109.8 L 59.3717 106.6 L 49.5617 106.6 L 49.5617 109.8 L 38.4 109.8"
         id="path1746" />
      <path
         style="fill:none;stroke:#000000;stroke-width:0.2;stroke-miterlimit:4;stroke-dasharray:none"
         d="M 38.4 109.8 L 38.4 99.355 L 41.6 99.355 L 41.6 89.545 L 38.4 89.545 L 38.4 79.005 L 41.6 79.005 L 41.6 69.195 L 38.4 69.195 L 38.4 58.655 L 41.6 58.655 L 41.6 48.845 L 38.4 48.845 L 38.4 38.4"
         id="path1748" />
    </g>
    <g
       id="panel3415"
       style="stroke-width:0.2;stroke-miterlimit:4;stroke-dasharray:none">
      <path
         style="fill:none;stroke:#000000;stroke-width:0.2;stroke-miterlimit:4;stroke-dasharray:none"
         d="M 159 41.6 L 168.905 41.6 L 168.905 38.4 L 179.095 38.4 L 179.095 41.6 L 189 41.6"
         id="path1751" />
      <path
         style="fill:none;stroke:#000000;stroke-width:0.2;stroke-miterlimit:4;stroke-dasharray:none"
         d="M 189 41.6 L 189 48.655 L 192.2 48.655 L 192.2 58.845 L 189 58.845 L 189 69.005 L 192.2 69.005 L 192.2 79.195 L 189 79.195 L 189 89.355 L 192.2 89.355 L 192.2 99.545 L 189 99.545 L 189 106.6"
         id="path1753" />
      <path
         style="fill:none;stroke:#000000;stroke-width:0.2;stroke-miterlimit:4;stroke-dasharray:none"
         d="M 189 106.6 L 179.095 106.6 L 179.095 109.8 L 168.905 109.8 L 168.905 106.6 L 159 106.6"
         id="path1755" />
      <path
         style="fill:none;stroke:#000000;stroke-width:0.2;stroke-miterlimit:4;stroke-dasharray:none"
         d="M 159 106.6 L 159 99.545 L 155.8 99.545 L 155.8 89.355 L 159 89.355 L 159 79.195 L 155.8 79.195 L 155.8 69.005 L 159 69.005 L 159 58.845 L 155.8 58.845 L 155.8 48.655 L 159 48.655 L 159 41.6"
         id="path1757" />
    </g>
    <g
       id="panel9770"
       style="stroke-width:0.2;stroke-miterlimit:4;stroke-dasharray:none">
      <path
         style="fill:none;stroke:#000000;stroke-width:0.2;stroke-miterlimit:4;stroke-dasharray:none"
         d="M 193.2 38.4 L 204.362 38.4 L 204.362 41.6 L 214.172 41.6 L 214.172 38.4 L 225.428 38.4 L 225.428 41.6 L 235.238 41.6 L 235.238 38.4 L 246.495 38.4 L 246.495 41.6 L 256.305 41.6 L 256.305 38.4 L 267.562 38.4 L 267.562 41.6 L 277.372 41.6 L 277.372 38.4 L 288.628 38.4 L 288.628 41.6 L 298.438 41.6 L 298.438 38.4 L 309.6 38.4"
         id="path1760" />
      <path
         style="fill:none;stroke:#000000;stroke-width:0.2;stroke-miterlimit:4;stroke-dasharray:none"
         d="M 309.6 38.4 L 309.6 48.845 L 306.4 48.845 L 306.4 58.655 L 309.6 58.655 L 309.6 69.195 L 306.4 69.195 L 306.4 79.005 L 309.6 79.005 L 309.6 89.545 L 306.4 89.545 L 306.4 99.355 L 309.6 99.355 L 309.6 109.8"
         id="path1762" />
      <path
         style="fill:none;stroke:#000000;stroke-width:0.2;stroke-miterlimit:4;stroke-dasharray:none"
         d="M 309.6 109.8 L 298.438 109.8 L 298.438 106.6 L 288.628 106.6 L 288.628 109.8 L 277.372 109.8 L 277.372 106.6 L 267.562 106.6 L 267.562 109.8 L 256.305 109.8 L 256.305 106.6 L 246.495 106.6 L 246.495 109.8 L 235.238 109.8 L 235.238 106.6 L 225.428 106.6 L 225.428 109.8 L 214.172 109.8 L 214.172 106.6 L 204.362 106.6 L 204.362 109.8 L 193.2 109.8"
         id="path1764" />
      <path
         style="fill:none;stroke:#000000;stroke-width:0.2;stroke-miterlimit:4;stroke-dasharray:none"
         d="M 193.2 109.8 L 193.2 99.355 L 196.4 99.355 L 196.4 89.545 L 193.2 89.545 L 193.2 79.005 L 196.4 79.005 L 196.4 69.195 L 193.2 69.195 L 193.2 58.655 L 196.4 58.655 L 196.4 48.845 L 193.2 48.845 L 193.2 38.4"
         id="path1766" />
    </g>
    <g
       id="panel7842"
       style="stroke-width:0.2;stroke-miterlimit:4;stroke-dasharray:none">
      <path
         style="fill:none;stroke:#000000;stroke-width:0.2;stroke-miterlimit:4;stroke-dasharray:none"
         d="M 38.4 4.2 L 49.3717 4.2 L 49.3717 1 L 59.5617 1 L 59.5617 4.2 L 70.4383 4.2 L 70.4383 1 L 80.6283 1 L 80.6283 4.2 L 91.505 4.2 L 91.505 1 L 101.695 1 L 101.695 4.2 L 112.572 4.2 L 112.572 1 L 122.762 1 L 122.762 4.2 L 133.638 4.2 L 133.638 1 L 143.828 1 L 143.828 4.2 L 154.8 4.2"
         id="path1769" />
      <path
         style="fill:none;stroke:#000000;stroke-width:0.2;stroke-miterlimit:4;stroke-dasharray:none"
         d="M 154.8 4.2 L 154.8 14.295 L 151.6 14.295 L 151.6 24.105 L 154.8 24.105 L 154.8 34.2"
         id="path1771" />
      <path
         style="fill:none;stroke:#000000;stroke-width:0.2;stroke-miterlimit:4;stroke-dasharray:none"
         d="M 154.8 34.2 L 143.828 34.2 L 143.828 37.4 L 133.638 37.4 L 133.638 34.2 L 122.762 34.2 L 122.762 37.4 L 112.572 37.4 L 112.572 34.2 L 101.695 34.2 L 101.695 37.4 L 91.505 37.4 L 91.505 34.2 L 80.6283 34.2 L 80.6283 37.4 L 70.4383 37.4 L 70.4383 34.2 L 59.5617 34.2 L 59.5617 37.4 L 49.3717 37.4 L 49.3717 34.2 L 38.4 34.2"
         id="path1773" />
      <path
         style="fill:none;stroke:#000000;stroke-width:0.2;stroke-miterlimit:4;stroke-dasharray:none"
         d="M 38.4 34.2 L 38.4 24.105 L 41.6 24.105 L 41.6 14.295 L 38.4 14.295 L 38.4 4.2"
         id="path1775" />
    </g>
    <g
       id="g1848"
       style="stroke-width:0.2;stroke-miterlimit:4;stroke-dasharray:none">
      <circle
         style="fill:none;stroke:#000000;stroke-width:0.2;stroke-miterlimit:4;stroke-dasharray:none;stroke-opacity:1"
         id="circle1816"
         cx="231.54234"
         cy="65.668121"
         r="6.7600002" />
      <circle
         style="fill:none;stroke:#000000;stroke-width:0.2;stroke-miterlimit:4;stroke-dasharray:none;stroke-opacity:1"
         id="circle1818"
         cx="231.91652"
         cy="84.376999"
         r="5.3299999" />
    </g>
    <g
       id="g1844"
       style="stroke-width:0.2;stroke-miterlimit:4;stroke-dasharray:none">
      <circle
         style="fill:none;stroke:#000000;stroke-width:0.2;stroke-miterlimit:4;stroke-dasharray:none;stroke-opacity:1"
         id="circle1822"
         cx="249.24234"
         cy="65.668121"
         r="6.7600002" />
      <circle
         style="fill:none;stroke:#000000;stroke-width:0.2;stroke-miterlimit:4;stroke-dasharray:none;stroke-opacity:1"
         id="circle1824"
         cx="249.61652"
         cy="84.376999"
         r="5.3299999" />
    </g>
    <g
       id="g1840"
       style="stroke-width:0.2;stroke-miterlimit:4;stroke-dasharray:none">
      <circle
         style="fill:none;stroke:#000000;stroke-width:0.2;stroke-miterlimit:4;stroke-dasharray:none;stroke-opacity:1"
         id="circle1828"
         cx="266.74234"
         cy="65.668121"
         r="6.7600002" />
      <circle
         style="fill:none;stroke:#000000;stroke-width:0.2;stroke-miterlimit:4;stroke-dasharray:none;stroke-opacity:1"
         id="circle1830"
         cx="267.11652"
         cy="84.376999"
         r="5.3299999" />
    </g>
    <g
       id="g1856"
       style="stroke-width:0.2;stroke-miterlimit:4;stroke-dasharray:none">
      <circle
         style="fill:none;stroke:#000000;stroke-width:0.2;stroke-miterlimit:4;stroke-dasharray:none;stroke-opacity:1"
         id="path1834"
         cx="174.32884"
         cy="62.824009"
         r="4.3849998" />
      <circle
         style="fill:none;stroke:#000000;stroke-width:0.2;stroke-miterlimit:4;stroke-dasharray:none;stroke-opacity:1"
         id="path1836"
         cx="174.02194"
         cy="87.961174"
         r="10" />
    </g>
    <g
       aria-label="Dómald"
       id="text1860"
       style="font-style:normal;font-weight:normal;font-size:10.5833px;line-height:1.25;font-family:sans-serif;fill:none;fill-opacity:1;stroke:#0000ff;stroke-width:0.2;stroke-miterlimit:4;stroke-dasharray:none;stroke-opacity:1">
      <path
         d="m 113.80076,95.691627 q 0,1.049028 -0.45992,1.901687 -0.45475,0.852658 -1.21439,1.322912 -0.5271,0.325561 -1.17822,0.470254 -0.64596,0.144694 -1.70532,0.144694 h -1.94303 v -7.694597 h 1.92236 q 1.12654,0 1.788,0.165364 0.66662,0.160197 1.12654,0.444416 0.78548,0.490925 1.22473,1.30741 0.43925,0.816485 0.43925,1.93786 z m -1.0697,-0.0155 q 0,-0.904335 -0.31523,-1.52445 -0.31522,-0.620115 -0.9405,-0.976681 -0.45476,-0.258382 -0.96635,-0.356566 -0.5116,-0.103353 -1.22473,-0.103353 h -0.96118 v 5.937603 h 0.96118 q 0.73897,0 1.28674,-0.10852 0.55294,-0.10852 1.01286,-0.403075 0.5736,-0.366901 0.85782,-0.966346 0.28939,-0.599445 0.28939,-1.498612 z"
         style="fill:none;stroke:#0000ff;stroke-width:0.2;stroke-miterlimit:4;stroke-dasharray:none;stroke-opacity:1"
         id="path1862" />
      <path
         d="m 120.29646,96.647638 q 0,1.410762 -0.72346,2.227247 -0.72347,0.816485 -1.93786,0.816485 -1.22473,0 -1.9482,-0.816485 -0.7183,-0.816485 -0.7183,-2.227247 0,-1.410762 0.7183,-2.227247 0.72347,-0.821653 1.9482,-0.821653 1.21439,0 1.93786,0.821653 0.72346,0.816485 0.72346,2.227247 z m -1.00252,0 q 0,-1.121375 -0.43924,-1.663976 -0.43925,-0.547768 -1.21956,-0.547768 -0.79065,0 -1.2299,0.547768 -0.43408,0.542601 -0.43408,1.663976 0,1.085202 0.43925,1.648473 0.43925,0.558104 1.22473,0.558104 0.77514,0 1.21439,-0.552936 0.44441,-0.558104 0.44441,-1.653641 z m -0.0517,-5.777407 -1.41076,1.932693 h -0.76998 l 0.92501,-1.932693 z"
         style="fill:none;stroke:#0000ff;stroke-width:0.2;stroke-miterlimit:4;stroke-dasharray:none;stroke-opacity:1"
         id="path1864" />
      <path
         d="m 130.22348,99.531174 h -0.97152 v -3.286611 q 0,-0.372069 -0.0362,-0.7183 -0.031,-0.346231 -0.13953,-0.552936 -0.11885,-0.222208 -0.34106,-0.335896 -0.22221,-0.113688 -0.64079,-0.113688 -0.40824,0 -0.81648,0.206705 -0.40824,0.201538 -0.81649,0.516763 0.0155,0.118856 0.0258,0.279052 0.0103,0.155029 0.0103,0.310058 v 3.694853 h -0.97152 v -3.286611 q 0,-0.382404 -0.0362,-0.723468 -0.031,-0.346231 -0.13953,-0.552936 -0.11885,-0.222208 -0.34106,-0.330728 -0.22221,-0.113688 -0.64079,-0.113688 -0.3979,0 -0.80098,0.19637 -0.39791,0.19637 -0.79581,0.50126 v 4.309801 h -0.97152 v -5.772239 h 0.97152 v 0.640785 q 0.45475,-0.377236 0.90433,-0.589109 0.45475,-0.211873 0.96635,-0.211873 0.58911,0 0.99735,0.248046 0.41341,0.248046 0.61495,0.687295 0.58911,-0.496093 1.07486,-0.713133 0.48576,-0.222208 1.0387,-0.222208 0.95084,0 1.40042,0.578774 0.45476,0.573607 0.45476,1.607132 z"
         style="fill:none;stroke:#0000ff;stroke-width:0.2;stroke-miterlimit:4;stroke-dasharray:none;stroke-opacity:1"
         id="path1866" />
      <path
         d="m 136.57966,99.531174 h -0.96635 v -0.614948 q -0.12919,0.08785 -0.3514,0.248046 -0.21704,0.155029 -0.42374,0.248046 -0.24288,0.118856 -0.55811,0.19637 -0.31522,0.08268 -0.73897,0.08268 -0.78031,0 -1.32291,-0.516763 -0.5426,-0.516762 -0.5426,-1.317744 0,-0.656289 0.27905,-1.059364 0.28422,-0.408242 0.80615,-0.640786 0.5271,-0.232543 1.26607,-0.315225 0.73897,-0.08268 1.58646,-0.124023 v -0.149861 q 0,-0.330728 -0.11886,-0.547768 -0.11368,-0.217041 -0.33072,-0.341064 -0.20671,-0.118855 -0.4961,-0.160196 -0.28938,-0.04134 -0.60461,-0.04134 -0.3824,0 -0.85266,0.103352 -0.47025,0.09819 -0.97151,0.289387 h -0.0517 v -0.987016 q 0.28422,-0.07752 0.82166,-0.170532 0.53743,-0.09302 1.05936,-0.09302 0.60978,0 1.05936,0.103352 0.45475,0.09819 0.78548,0.341064 0.32556,0.23771 0.49609,0.614947 0.17054,0.377237 0.17054,0.935341 z m -0.96635,-1.421098 v -1.607132 q -0.44442,0.02584 -1.04903,0.07752 -0.59944,0.05168 -0.95084,0.149861 -0.41858,0.118855 -0.67696,0.372069 -0.25838,0.248046 -0.25838,0.687294 0,0.496093 0.29972,0.749306 0.29972,0.248046 0.91467,0.248046 0.5116,0 0.93534,-0.196369 0.42375,-0.201538 0.78548,-0.48059 z"
         style="fill:none;stroke:#0000ff;stroke-width:0.2;stroke-miterlimit:4;stroke-dasharray:none;stroke-opacity:1"
         id="path1868" />
      <path
         d="m 139.43219,99.531174 h -0.97152 v -8.040828 h 0.97152 z"
         style="fill:none;stroke:#0000ff;stroke-width:0.2;stroke-miterlimit:4;stroke-dasharray:none;stroke-opacity:1"
         id="path1870" />
      <path
         d="m 146.03641,99.531174 h -0.97151 v -0.604613 q -0.41858,0.361734 -0.87333,0.563272 -0.45475,0.201537 -0.98702,0.201537 -1.03352,0 -1.6433,-0.795814 -0.60461,-0.795815 -0.60461,-2.206577 0,-0.733803 0.2067,-1.30741 0.21187,-0.573606 0.56844,-0.976681 0.3514,-0.39274 0.81649,-0.599445 0.47025,-0.206705 0.97151,-0.206705 0.45475,0 0.80615,0.09819 0.3514,0.09302 0.73897,0.294555 v -2.501132 h 0.97151 z m -0.97151,-1.421098 v -3.312448 q -0.39274,-0.1757 -0.7028,-0.242879 -0.31006,-0.06718 -0.67696,-0.06718 -0.81648,0 -1.27123,0.568439 -0.45475,0.568439 -0.45475,1.612299 0,1.028358 0.35139,1.565791 0.3514,0.532266 1.12655,0.532266 0.41341,0 0.83715,-0.180867 0.42375,-0.186035 0.79065,-0.475422 z"
         style="fill:none;stroke:#0000ff;stroke-width:0.2;stroke-miterlimit:4;stroke-dasharray:none;stroke-opacity:1"
         id="path1872" />
    </g>
  </g>
</svg>
